<?xml version="1.0" standalone="no"?><!DOCTYPE svg PUBLIC "-//W3C//DTD SVG 1.1//EN"
        "http://www.w3.org/Graphics/SVG/1.1/DTD/svg11.dtd">
<svg t="1574504781446" class="icon" viewBox="0 0 1024 1024" version="1.1" xmlns="http://www.w3.org/2000/svg" p-id="5224"
     width="200" height="200">
    <defs>
        <style type="text/css"></style>
    </defs>
    <path d="M495.616 1024c-36.864 0-75.776-10.24-108.544-28.672l-251.904-143.36c-67.584-38.912-110.592-112.64-112.64-190.464L20.48 370.688c0-77.824 40.96-151.552 108.544-192.512l249.856-145.408c67.584-38.912 153.6-40.96 221.184-2.048l251.904 143.36c67.584 38.912 110.592 112.64 112.64 190.464l2.048 290.816c0 77.824-40.96 151.552-108.544 192.512l-249.856 145.408c-36.864 20.48-75.776 30.72-112.64 30.72zM491.52 88.064c-24.576 0-47.104 6.144-69.632 18.432L172.032 251.904c-40.96 24.576-67.584 69.632-67.584 118.784l2.048 288.768c0 49.152 26.624 94.208 69.632 116.736l251.904 143.36c43.008 24.576 94.208 24.576 137.216 0l249.856-145.408c40.96-24.576 67.584-69.632 67.584-118.784L880.64 366.592c0-49.152-26.624-94.208-69.632-116.736l-251.904-143.36c-20.48-12.288-45.056-18.432-67.584-18.432z"
          fill="#303030" p-id="5225"></path>
    <path d="M458.752 952.32L450.56 538.624 77.824 331.776l40.96-75.776 415.744 231.424 8.192 462.848z" fill="#303030"
          p-id="5226"></path>
    <path d="M476.3648 471.57248l367.84128-214.8352 42.35264 72.51968-367.8208 214.8352zM274.432 577.536c-22.528 0-43.008-18.432-43.008-43.008v-114.688h83.968v114.688c2.048 24.576-16.384 43.008-40.96 43.008z"
          fill="#303030" p-id="5227"></path>
</svg>