<?xml version="1.0" standalone="no"?><!DOCTYPE svg PUBLIC "-//W3C//DTD SVG 1.1//EN"
        "http://www.w3.org/Graphics/SVG/1.1/DTD/svg11.dtd">
<svg t="1570958997075" class="icon" viewBox="0 0 1024 1024" version="1.1" xmlns="http://www.w3.org/2000/svg"
     p-id="15763"
     width="200" height="200">
    <defs>
        <style type="text/css"></style>
    </defs>
    <path d="M488.567467 190.73024c-18.070187-10.939733-77.161813-41.833813-112.305494-61.412693-30.706347-17.073493-40.024747 19.57888-42.949973 44.690773-2.921813 25.18016-2.921813 57.74336 29.269333 57.74336h118.183254c32.191147 0 32.191147-26.064213 7.80288-41.02144zM696.753493 173.472427c-2.921813-25.105067-12.2368-61.760853-42.96704-44.690774-35.191467 19.582293-94.23872 50.476373-112.308906 61.484374-24.43264 14.88896-24.43264 40.946347 7.830186 40.946346h118.15936c32.21504 0 32.21504-32.58368 29.2864-57.739946zM858.094933 264.424107h-316.19072v166.656h316.19072c18.664107 0 33.792-15.383893 33.792-34.358614V298.786133c0-18.97472-15.131307-34.362027-33.792-34.362026zM488.577707 464.34304H245.169493c-36.768427 0-66.573653 30.306987-66.573653 67.69664v297.908907c0 37.389653 29.805227 67.700053 66.573653 67.700053h243.408214V464.34304zM488.577707 264.424107H172.386987c-18.660693 0-33.792 15.383893-33.792 34.362026v97.931947c0 18.978133 15.131307 34.358613 33.792 34.358613h316.187306V264.424107zM562.111147 735.296853c0-97.56672 79.090347-176.657067 176.657066-176.657066 43.03872 0 82.476373 15.4112 113.12128 40.99072v-67.590827c0-37.389653-29.805227-67.69664-66.573653-67.69664h-243.411627v433.309013h127.17056c-62.90432-27.040427-106.963627-89.545387-106.963626-162.3552z"
          fill="#888888" p-id="15764"></path>
    <path d="M744.250027 584.956587c-83.336533 0-150.893227 67.560107-150.893227 150.89664s67.556693 150.893227 150.893227 150.893226c83.339947 0 150.89664-67.556693 150.89664-150.893226s-67.556693-150.89664-150.89664-150.89664z m99.9936 170.891946h-79.99488v79.998294h-39.99744V755.848533h-79.998294v-39.99744h79.998294v-79.99488h39.99744v79.99488h79.99488v39.99744z"
          fill="#888888" p-id="15765"></path>
</svg>