<?xml version="1.0" standalone="no"?><!DOCTYPE svg PUBLIC "-//W3C//DTD SVG 1.1//EN"
        "http://www.w3.org/Graphics/SVG/1.1/DTD/svg11.dtd">
<svg t="1575633081899" class="icon" viewBox="0 0 1024 1024" version="1.1" xmlns="http://www.w3.org/2000/svg" p-id="5441"
     width="200" height="200">
    <defs>
        <style type="text/css"></style>
    </defs>
    <path d="M174.371786 438.851814h675.246658c35.912707 0 64.657501 27.86709 64.657501 62.682667v459.770417a63.414087 63.414087 0 0 1-64.657501 62.682668H174.371786A63.414087 63.414087 0 0 1 109.714286 961.304898V501.534481C109.714286 466.718904 138.45908 438.851814 174.371786 438.851814z m496.195118 130.850982L477.325822 766.527835l-133.849803-109.712953-48.346842 55.149044 187.755435 153.817561 241.953633-246.488436-54.271341-49.736538z"
          fill="#778899" p-id="5442"></path>
    <path d="M523.33212 105.836429c-87.038943 0-166.763689 70.508858-166.763689 162.228887V437.388975H262.434717V261.116829C262.361575 119.879687 378.364738 0 530.573175 0c144.967383 0 268.2116 112.858058 268.211601 261.043687v196.020477H697.263723l-7.241055-188.998848c0-84.625258-72.410549-162.228887-166.76369-162.228887z"
          fill="#778899" p-id="5443"></path>
</svg>