<?xml version="1.0" standalone="no"?><!DOCTYPE svg PUBLIC "-//W3C//DTD SVG 1.1//EN"
        "http://www.w3.org/Graphics/SVG/1.1/DTD/svg11.dtd">
<svg t="1575633315065" class="icon" viewBox="0 0 1024 1024" version="1.1" xmlns="http://www.w3.org/2000/svg"
     p-id="11911"
     width="200" height="200">
    <defs>
        <style type="text/css"></style>
    </defs>
    <path d="M1023.807825 438.055297l-7.138339-340.555868v-1.184964A96.067764 96.067764 0 0 0 925.184536 5.286368h-1.184964L585.642312 0.061104a81.377063 81.377063 0 0 0-60.63305 23.713562L19.386447 529.454588a66.001081 66.001081 0 0 0 0 93.355195L401.230467 1004.668079a66.001081 66.001081 0 0 0 93.340918 0l505.551432-505.522878a81.277126 81.277126 0 0 0 23.685008-61.089904z m-74.16734 10.621848L447.915203 950.388151 73.666375 576.139323 575.491594 74.299828a9.836631 9.836631 0 0 1 7.395319-2.855336h1.184964l338.086003 5.125328a24.869972 24.869972 0 0 1 23.213878 23.085387l7.138339 340.355995v1.184964a9.793801 9.793801 0 0 1-2.869612 7.480979z"
          fill="#778899" p-id="11912"></path>
    <path d="M605.67249 224.204943a137.313085 137.313085 0 1 0 194.162816 0 137.470129 137.470129 0 0 0-194.162816 0z m143.709038 143.709037a65.901144 65.901144 0 1 1 0-93.240982 66.015357 66.015357 0 0 1 0 93.240982z"
          fill="#778899" p-id="11913"></path>
</svg>