<?xml version="1.0" standalone="no"?><!DOCTYPE svg PUBLIC "-//W3C//DTD SVG 1.1//EN"
        "http://www.w3.org/Graphics/SVG/1.1/DTD/svg11.dtd">
<svg t="1575633195584" class="icon" viewBox="0 0 1024 1024" version="1.1" xmlns="http://www.w3.org/2000/svg" p-id="8537"
     width="200" height="200">
    <defs>
        <style type="text/css"></style>
    </defs>
    <path d="M928.256 126.464H95.744C41.984 128 0 172.032 0 225.28v573.44c0 54.272 44.544 98.816 95.744 95.744h832.512c51.712 0.512 94.72-40.448 95.744-92.16V225.28c-0.512-53.248-42.496-96.768-95.744-98.816z m30.72 675.84c0 16.896-13.824 30.72-30.72 30.72H95.744c-16.896 0-30.72-13.312-30.72-30.208V225.28c0-16.896 13.824-30.72 30.72-30.72h832.512c17.408 0 31.232 13.824 31.232 30.72v577.024h-0.512z"
          fill="#778899" p-id="8538"></path>
    <path d="M719.872 446.976h-225.28c-10.24 0-16.896-6.656-16.896-16.896s6.656-16.896 16.896-16.896h225.28c10.24 0 17.408 6.656 17.408 16.896s-6.656 16.896-17.408 16.896z m0-95.232h-225.28c-10.24 0-16.896-6.656-16.896-16.896s6.656-16.896 16.896-16.896h225.28c10.24 0 17.408 6.656 17.408 16.896s-6.656 16.896-17.408 16.896z m-334.336-61.44h-225.28c-16.896 0-30.72 13.824-30.72 30.72V512c0 16.896 13.824 30.72 30.72 30.72h225.28c16.896 0 30.72-13.824 30.72-30.72V321.024c0-16.896-13.312-30.72-30.72-30.72zM351.744 481.28H190.976V351.744h160.256l0.512 129.536zM143.36 607.744h737.792c9.728 0 16.896 6.656 16.896 16.896s-7.168 16.896-16.896 16.896H143.36c-9.216 0.512-16.384-6.656-16.896-15.36v-1.536c3.072-10.24 9.728-16.896 16.896-16.896z m0 95.232h737.792c9.728 0 16.896 6.656 16.896 16.896s-7.168 17.408-16.896 17.408H143.36c-10.24 0-16.896-7.168-16.896-17.408 3.072-9.728 9.728-16.896 16.896-16.896zM881.152 542.72H495.104c-10.24 0-16.896-6.656-16.896-16.896s6.656-16.896 16.896-16.896h382.464c9.728 0 16.896 6.656 16.896 16.896 3.072 10.24-7.168 16.896-13.312 16.896z"
          fill="#778899" p-id="8539"></path>
</svg>