<?xml version="1.0" standalone="no"?><!DOCTYPE svg PUBLIC "-//W3C//DTD SVG 1.1//EN"
        "http://www.w3.org/Graphics/SVG/1.1/DTD/svg11.dtd">
<svg t="1570958299351" class="icon" viewBox="0 0 1026 1024" version="1.1" xmlns="http://www.w3.org/2000/svg" p-id="3845"
     width="200.390625" height="200">
    <defs>
        <style type="text/css"></style>
    </defs>
    <path d="M384 0H85.333333C57.6 0 32 12.8 17.066667 34.133333 6.4 49.066667 0 66.133333 0 85.333333v298.666667c0 46.933333 38.4 85.333333 85.333333 85.333333h298.666667c46.933333 0 85.333333-38.4 85.333333-85.333333V85.333333c0-46.933333-38.4-85.333333-85.333333-85.333333z m0 416v10.666667-10.666667zM770.133333 512c21.333333 0 40.533333-8.533333 55.466667-23.466667l177.066667-177.066666c14.933333-14.933333 23.466667-34.133333 23.466666-55.466667s-8.533333-40.533333-23.466666-55.466667L825.6 21.333333c-29.866667-29.866667-81.066667-29.866667-110.933333 0l-177.066667 177.066667c-14.933333 14.933333-23.466667 34.133333-23.466667 55.466667s8.533333 40.533333 23.466667 55.466666l177.066667 177.066667c14.933333 17.066667 34.133333 25.6 55.466666 25.6z m0-424.533333L938.666667 256l-168.533334 168.533333-166.4-168.533333 166.4-168.533333zM384 554.666667H85.333333c-46.933333 0-85.333333 38.4-85.333333 85.333333v298.666667c0 46.933333 38.4 85.333333 85.333333 85.333333h298.666667c46.933333 0 85.333333-38.4 85.333333-85.333333V640c0-46.933333-38.4-85.333333-85.333333-85.333333z m0 405.333333v21.333333-21.333333zM940.8 554.666667h-298.666667c-46.933333 0-85.333333 38.4-85.333333 85.333333v298.666667c0 46.933333 38.4 85.333333 85.333333 85.333333h298.666667c46.933333 0 85.333333-38.4 85.333333-85.333333V640c0-46.933333-38.4-85.333333-85.333333-85.333333z"
          p-id="3846"></path>
</svg>