<?xml version="1.0" standalone="no"?><!DOCTYPE svg PUBLIC "-//W3C//DTD SVG 1.1//EN"
        "http://www.w3.org/Graphics/SVG/1.1/DTD/svg11.dtd">
<svg t="1575633179598" class="icon" viewBox="0 0 1024 1024" version="1.1" xmlns="http://www.w3.org/2000/svg" p-id="7738"
     width="200" height="200">
    <defs>
        <style type="text/css"></style>
    </defs>
    <path d="M915 322.4H94c-20.6 0-37.2-16.7-37.2-37.2 0-20.6 16.7-37.2 37.2-37.2h821c20.6 0 37.2 16.7 37.2 37.2 0 20.5-16.7 37.2-37.2 37.2zM915 769H94c-20.6 0-37.2-16.7-37.2-37.2 0-20.6 16.7-37.2 37.2-37.2h821c20.6 0 37.2 16.7 37.2 37.2 0 20.6-16.7 37.2-37.2 37.2z"
          fill="#778899" p-id="7739"></path>
    <path d="M863.3 119.2L664.6 915.8c-5 19.9-25.2 32.1-45.1 27.1-19.9-5-32.1-25.2-27.1-45.1l198.8-796.5c5-19.9 25.2-32.1 45.1-27.1 19.9 4.9 32 25.1 27 45zM414.5 119.2L215.8 915.8c-5 19.9-25.2 32.1-45.1 27.1-19.9-5-32.1-25.2-27.1-45.1l198.8-796.5c5-19.9 25.2-32.1 45.1-27.1 19.9 4.9 32 25.1 27 45z"
          fill="#778899" p-id="7740"></path>
</svg>