<?xml version="1.0" standalone="no"?><!DOCTYPE svg PUBLIC "-//W3C//DTD SVG 1.1//EN"
        "http://www.w3.org/Graphics/SVG/1.1/DTD/svg11.dtd">
<svg t="1575633334783" class="icon" viewBox="0 0 1024 1024" version="1.1" xmlns="http://www.w3.org/2000/svg"
     p-id="13554"
     width="200" height="200">
    <defs>
        <style type="text/css"></style>
    </defs>
    <path d="M793.6 192v622.4l-256-156.8c-16-9.6-35.2-9.6-49.6 0l-257.6 156.8V192c1.6-1.6 3.2-1.6 8-1.6h547.2c3.2-1.6 11.2 4.8 8 1.6z m3.2-62.4H227.2c-32 0-57.6 20.8-57.6 48v681.6c0 12.8 9.6 25.6 24 32 6.4 3.2 12.8 3.2 19.2 3.2 9.6 0 17.6-1.6 25.6-6.4L512 720l275.2 168c8 4.8 16 6.4 25.6 6.4 6.4 0 12.8-1.6 19.2-3.2 14.4-6.4 24-17.6 24-32V177.6c-1.6-27.2-27.2-48-59.2-48z"
          fill="#778899" p-id="13555"></path>
    <path d="M315.2 390.4h393.6c14.4 0 24-12.8 24-30.4s-11.2-30.4-24-30.4H315.2c-14.4 0-24 12.8-24 30.4-1.6 17.6 9.6 30.4 24 30.4z m0 161.6h393.6c14.4 0 24-12.8 24-30.4 0-16-11.2-30.4-24-30.4H315.2c-14.4 0-24 12.8-24 30.4-1.6 17.6 9.6 30.4 24 30.4z"
          fill="#778899" p-id="13556"></path>
</svg>