<?xml version="1.0" standalone="no"?><!DOCTYPE svg PUBLIC "-//W3C//DTD SVG 1.1//EN"
        "http://www.w3.org/Graphics/SVG/1.1/DTD/svg11.dtd">
<svg t="1575634170299" class="icon" viewBox="0 0 1075 1024" version="1.1" xmlns="http://www.w3.org/2000/svg"
     p-id="15280"
     width="209.9609375" height="200">
    <defs>
        <style type="text/css"/>
    </defs>
    <path d="M563.2 998.4H102.4c-15.36 0-25.6-10.24-25.6-25.6V204.8c0-43.52 35.84-76.8 76.8-76.8h358.4c43.52 0 76.8 35.84 76.8 76.8v768c0 15.36-10.24 25.6-25.6 25.6zM128 947.2h409.6V204.8c0-15.36-12.8-25.6-25.6-25.6H153.6c-15.36 0-25.6 10.24-25.6 25.6v742.4z"
          fill="#778899" p-id="15282"></path>
    <path d="M870.4 998.4H563.2c-15.36 0-25.6-10.24-25.6-25.6V563.2c0-43.52 35.84-76.8 76.8-76.8h204.8c43.52 0 76.8 35.84 76.8 76.8v409.6c0 15.36-10.24 25.6-25.6 25.6z m-281.6-51.2h256V563.2c0-15.36-12.8-25.6-25.6-25.6h-204.8c-15.36 0-25.6 12.8-25.6 25.6v384zM435.2 537.6H204.8c-15.36 0-25.6-10.24-25.6-25.6s10.24-25.6 25.6-25.6h230.4c15.36 0 25.6 10.24 25.6 25.6s-10.24 25.6-25.6 25.6zM435.2 384H204.8c-15.36 0-25.6-10.24-25.6-25.6s10.24-25.6 25.6-25.6h230.4c15.36 0 25.6 10.24 25.6 25.6s-10.24 25.6-25.6 25.6zM435.2 691.2H204.8c-15.36 0-25.6-10.24-25.6-25.6s10.24-25.6 25.6-25.6h230.4c15.36 0 25.6 10.24 25.6 25.6s-10.24 25.6-25.6 25.6zM435.2 844.8H204.8c-15.36 0-25.6-10.24-25.6-25.6s10.24-25.6 25.6-25.6h230.4c15.36 0 25.6 10.24 25.6 25.6s-10.24 25.6-25.6 25.6z"
          fill="#778899" p-id="15283"></path>
    <path d="M768 691.2h-102.4c-15.36 0-25.6-10.24-25.6-25.6s10.24-25.6 25.6-25.6h102.4c15.36 0 25.6 10.24 25.6 25.6s-10.24 25.6-25.6 25.6zM768 844.8h-102.4c-15.36 0-25.6-10.24-25.6-25.6s10.24-25.6 25.6-25.6h102.4c15.36 0 25.6 10.24 25.6 25.6s-10.24 25.6-25.6 25.6zM949.76 998.4H25.6c-12.8 0-25.6-10.24-25.6-25.6 0-12.8 10.24-25.6 25.6-25.6h926.72c12.8 0 25.6 10.24 25.6 25.6-2.56 15.36-12.8 25.6-28.16 25.6z"
          fill="#778899" p-id="15284"></path>
</svg>