<?xml version="1.0" standalone="no"?><!DOCTYPE svg PUBLIC "-//W3C//DTD SVG 1.1//EN"
        "http://www.w3.org/Graphics/SVG/1.1/DTD/svg11.dtd">
<svg t="1575633024422" class="icon" viewBox="0 0 1024 1024" version="1.1" xmlns="http://www.w3.org/2000/svg" p-id="3049"
     width="200" height="200">
    <defs>
        <style type="text/css"></style>
    </defs>
    <path d="M864 896a64 64 0 0 1-64 64h-576a64 64 0 0 1-64-64V512c0-35.392 28.608-32 64-32h576c35.392 0 64-3.392 64 32v384z"
          fill="#B0C4DE" p-id="3050"></path>
    <path d="M816.448 415.936l-8.448 0.064H768V256a256 256 0 0 0-512 0v160h-40l-8.384-0.064C106.88 415.936 96 483.136 96 512v384c0 70.592 57.408 128 128 128h576c70.592 0 128-57.408 128-128V512c0-28.864-10.88-96.064-111.552-96.064zM320 256c0-105.856 86.144-192 192-192s192 86.144 192 192v160H320V256z m544 640a64 64 0 0 1-64 64h-576a64 64 0 0 1-64-64V512c0-29.696 20.16-32.064 47.616-32.064L224 480h576l16.384-0.064c27.456 0 47.616 2.368 47.616 32.064v384z"
          fill="#778899" p-id="3051"></path>
    <path d="M524.48 610.432a32.384 32.384 0 0 0-24.96 0 63.232 63.232 0 0 0-51.52 61.504 63.36 63.36 0 0 0 32 54.208v73.792a32 32 0 0 0 64 0v-73.792a63.36 63.36 0 0 0 32-54.208 63.232 63.232 0 0 0-51.52-61.504z"
          fill="#6495ED" p-id="3052"></path>
</svg>