<?xml version="1.0" standalone="no"?><!DOCTYPE svg PUBLIC "-//W3C//DTD SVG 1.1//EN"
        "http://www.w3.org/Graphics/SVG/1.1/DTD/svg11.dtd">
<svg t="1575634783308" class="icon" viewBox="0 0 1024 1024" version="1.1" xmlns="http://www.w3.org/2000/svg"
     p-id="20053"
     width="200" height="200">
    <defs>
        <style type="text/css"></style>
    </defs>
    <path d="M164.220638 322.895361c-12.380101-33.696213-28.483539-84.985201-23.736283-140.369861 3.071754-34.440881 17.127357-64.413756 41.794475-88.70854l65.158424-65.158424c39.653555-38.071136 91.873377-38.16422 130.037597-0.27925 5.585008 5.212674 11.449266 10.797682 17.965108 17.313524 5.864258 5.864258 11.356182 11.728516 17.313524 17.592774l17.220441 17.685858 51.009737 50.916654c40.305139 40.305139 40.025889 92.711129-0.465417 133.295518l-16.010356 15.917272a1302.237639 1302.237639 0 0 1-42.539142 41.887559c11.076932 24.853284 26.528787 49.148068 49.334235 77.910858 16.382689 20.199111 33.696213 39.653555 52.126739 58.08408a582.702475 582.702475 0 0 0 101.274807 81.541113c5.212674 3.257921 11.635433 6.329675 18.337442 9.773764 4.188756 2.234003 8.656762 4.374923 12.938601 6.702009l58.084081-58.270247c39.281221-39.188138 91.501044-39.932805 129.665263-1.86167l104.532728 104.625812c38.815804 38.72272 38.908887 92.152628 0 132.737018a578.048302 578.048302 0 0 1-24.574034 24.48095 396.349383 396.349383 0 0 0-32.858462 33.789297l-0.930835 1.023918c-31.648377 34.440881-72.884351 50.358153-122.125502 47.8449-64.879173-4.095672-123.056337-28.018122-166.153981-48.403401a873.402128 873.402128 0 0 1-294.143741-230.195402c-67.671677-81.44803-113.18949-157.497218-143.348532-239.876083z"
          fill="#B0C4DE" p-id="20054"></path>
    <path d="M276.479294 588.74173a913.055683 913.055683 0 0 0 307.82701 240.993084c60.969668 28.855873 111.420905 45.145479 163.268393 48.4034 38.536553 2.047836 67.950928-9.494513 91.314877-34.999381l0.930835-0.930835c10.611515-12.566267 21.595363-23.643199 39.281221-40.305139a565.947451 565.947451 0 0 0 25.504868-25.597952c22.340031-23.177782 22.340031-47.565649 0.837752-68.974846L789.462255 591.1619c-20.292195-20.199111-42.818393-19.919861-64.786089 2.047836l-94.014298 94.014297-36.5818-19.640611a289.024151 289.024151 0 0 0-13.217852-6.888176l-11.170015-5.678091a196.685356 196.685356 0 0 1-13.683269-7.725927A701.849307 701.849307 0 0 1 433.790345 549.088175a897.417661 897.417661 0 0 1-62.179752-69.254096 452.106377 452.106377 0 0 1-61.993586-98.482304l-16.196523-36.30255 29.135124-27.273454c15.638022-14.707187 30.90371-29.786708 45.890147-45.238563l17.685858-17.685858c23.270866-23.270866 23.363949-45.98323 0.5585-68.788679l-56.594745-56.594745a949.916734 949.916734 0 0 1-19.733694-20.106028 978.958774 978.958774 0 0 1-18.616692-18.989026c-5.585008-5.585008-10.239181-10.053014-18.709776-18.058192l-1.023918-0.930834C251.346759 50.905484 228.075894 50.905484 206.573614 71.570013l-0.558501 0.5585-71.953517 71.953517c-17.872025 17.685858-27.738872 38.536553-29.972874 63.482921-3.537172 41.235974 4.933424 82.00653 23.084698 131.713099 31.089876 84.985201 78.190108 163.919977 149.212791 249.46368zM74.581264 358.453244C60.991078 321.126775 43.02597 264.159696 48.424811 202.724611A154.518548 154.518548 0 0 1 94.780375 104.335391l72.232767-72.232766C211.134703-10.343434 269.032617-10.343434 311.478676 31.637207c6.143509 5.771175 12.659351 11.914683 19.919861 19.175193l19.175193 19.547528c6.143509 6.515842 12.659351 13.031685 19.175193 19.547527l56.594745 56.594745c44.680062 44.680062 44.493895 102.857226-0.5585 148.002705l-17.685858 17.685858c-15.451855 15.824189-31.18296 31.276043-47.286399 46.448648 12.287017 27.552705 29.414374 54.546909 54.733076 86.474536 18.151275 22.433114 37.512635 43.935394 57.897913 64.413756a646.930064 646.930064 0 0 0 112.444823 90.570209c5.771175 3.723338 12.845518 7.074343 20.292195 10.890765 4.654173 2.513253 9.587597 4.84034 14.334853 7.353594l64.599923-64.599923c43.56306-43.56306 101.460974-44.400812 143.907033-2.047836l115.981994 116.075077c43.097643 43.00456 43.190727 102.298725 0 147.351121-8.842929 9.308346-17.872025 18.337442-27.180371 27.180371a439.912443 439.912443 0 0 0-36.488717 37.512636l-1.117002 1.117001c-35.092465 38.350387-80.982612 55.850077-135.622605 53.057574-71.953516-4.468006-136.460356-31.089876-184.305255-53.802241A969.464261 969.464261 0 0 1 233.660901 624.76503C158.635631 534.474071 108.09131 449.954287 74.674347 358.546327z"
          fill="#778899" p-id="20055"></path>
</svg>