<?xml version="1.0" standalone="no"?><!DOCTYPE svg PUBLIC "-//W3C//DTD SVG 1.1//EN"
        "http://www.w3.org/Graphics/SVG/1.1/DTD/svg11.dtd">
<svg t="1575634329321" class="icon" viewBox="0 0 1024 1024" version="1.1" xmlns="http://www.w3.org/2000/svg"
     p-id="18933"
     width="200" height="200">
    <defs>
        <style type="text/css"></style>
    </defs>
    <path d="M755.2 640H704c-17.6 0-32-14.4-32-32s14.4-32 32-32h51.2c17.6 0 32 14.4 32 32s-14.4 32-32 32z"
          fill="#666666" p-id="18934"></path>
    <path d="M756.8 384H577.6l200-200c12.8-12.8 12.8-32 0-44.8-12.8-12.8-32-12.8-44.8 0L512 360 289.6 137.6c-12.8-12.8-32-12.8-44.8 0-12.8 12.8-12.8 32 0 44.8L444.8 384H265.6c-17.6 0-32 14.4-32 32s14.4 32 32 32h212.8v128H265.6c-17.6 0-32 14.4-32 32s14.4 32 32 32h212.8v225.6c0 17.6 14.4 32 32 32s32-14.4 32-32V640H608c17.6 0 32-14.4 32-32s-14.4-32-32-32h-65.6v-128h214.4c17.6 0 32-14.4 32-32s-14.4-32-32-32z"
          fill="#778899" p-id="18935"></path>
</svg>