<?xml version="1.0" standalone="no"?><!DOCTYPE svg PUBLIC "-//W3C//DTD SVG 1.1//EN"
        "http://www.w3.org/Graphics/SVG/1.1/DTD/svg11.dtd">
<svg t="1575633342609" class="icon" viewBox="0 0 1024 1024" version="1.1" xmlns="http://www.w3.org/2000/svg"
     p-id="14361"
     width="200" height="200">
    <defs>
        <style type="text/css"></style>
    </defs>
    <path d="M768 921.6c-51.2 0-102.4-35.84-153.6-71.68-40.96-30.72-87.04-66.56-128-66.56-30.72 0-71.68 30.72-107.52 66.56-40.96 35.84-81.92 71.68-133.12 71.68S153.6 875.52 153.6 824.32V199.68C153.6 148.48 194.56 102.4 245.76 102.4H768c25.6 0 46.08 10.24 66.56 25.6 20.48 20.48 30.72 46.08 25.6 71.68v624.64c0 51.2-40.96 97.28-92.16 97.28z m-281.6-179.2c51.2 0 102.4 35.84 153.6 71.68 46.08 30.72 87.04 66.56 128 66.56 30.72 0 56.32-25.6 56.32-56.32V199.68c0-15.36-5.12-30.72-15.36-40.96-10.24-10.24-25.6-15.36-35.84-15.36H245.76c-30.72 0-56.32 25.6-51.2 56.32v624.64c0 15.36 5.12 30.72 15.36 40.96 10.24 10.24 25.6 15.36 40.96 20.48 30.72 0 71.68-30.72 107.52-66.56 35.84-35.84 81.92-76.8 128-76.8z"
          fill="#778899" p-id="14362"></path>
    <path d="M768 936.96c-61.44 0-117.76-46.08-163.84-76.8-40.96-30.72-81.92-61.44-117.76-61.44-25.6 0-61.44 30.72-97.28 56.32-46.08 40.96-92.16 81.92-143.36 81.92-61.44 0-107.52-51.2-107.52-112.64V199.68c0-61.44 46.08-112.64 107.52-112.64H768c30.72 0 56.32 10.24 76.8 30.72 20.48 20.48 30.72 51.2 30.72 81.92v624.64c0 61.44-46.08 112.64-107.52 112.64zM245.76 117.76c-40.96 0-76.8 35.84-76.8 81.92v624.64c0 46.08 35.84 81.92 76.8 81.92s81.92-35.84 122.88-71.68C409.6 803.84 450.56 768 486.4 768c46.08 0 97.28 35.84 138.24 66.56 51.2 35.84 97.28 71.68 143.36 71.68 46.08 0 76.8-35.84 76.8-81.92V199.68c0-20.48-10.24-40.96-25.6-61.44-15.36-15.36-35.84-20.48-56.32-25.6H245.76z m0 783.36c-20.48 0-35.84-10.24-51.2-25.6s-20.48-30.72-20.48-51.2V199.68c0-40.96 30.72-71.68 66.56-71.68h522.24c20.48 0 35.84 5.12 51.2 20.48 15.36 15.36 20.48 35.84 20.48 56.32v624.64c0 40.96-30.72 71.68-71.68 71.68-46.08 0-87.04-30.72-133.12-61.44l-10.24-5.12c-51.2-35.84-97.28-71.68-143.36-71.68-40.96 0-87.04 40.96-122.88 71.68-30.72 30.72-66.56 66.56-107.52 66.56zM768 158.72H245.76c-20.48 0-40.96 20.48-35.84 40.96v624.64c0 10.24 5.12 20.48 10.24 30.72 5.12 10.24 15.36 15.36 25.6 15.36 25.6 0 61.44-30.72 92.16-56.32 40.96-35.84 92.16-81.92 143.36-81.92 61.44 0 117.76 46.08 158.72 76.8l10.24 5.12c35.84 30.72 76.8 56.32 112.64 56.32 20.48 0 40.96-20.48 40.96-40.96V199.68c0-10.24-5.12-25.6-15.36-30.72 0-10.24-10.24-10.24-20.48-10.24z"
          fill="#778899" p-id="14363"></path>
    <path d="M281.6 327.68c0-10.24 5.12-20.48 10.24-30.72 10.24-10.24 20.48-10.24 30.72-10.24h363.52c25.6 0 40.96 20.48 40.96 40.96s-20.48 40.96-40.96 40.96h-358.4c-10.24 5.12-20.48 0-30.72-10.24-10.24-5.12-15.36-15.36-15.36-30.72z m0 168.96c0-20.48 20.48-40.96 40.96-40.96h250.88c25.6 0 40.96 20.48 40.96 40.96 0 25.6-20.48 40.96-40.96 40.96H327.68c-10.24 0-20.48-5.12-30.72-10.24s-15.36-20.48-15.36-30.72z"
          fill="#778899" p-id="14364"></path>
</svg>