<?xml version="1.0" standalone="no"?><!DOCTYPE svg PUBLIC "-//W3C//DTD SVG 1.1//EN"
        "http://www.w3.org/Graphics/SVG/1.1/DTD/svg11.dtd">
<svg t="1575633325371" class="icon" viewBox="0 0 1024 1024" version="1.1" xmlns="http://www.w3.org/2000/svg"
     p-id="12764"
     width="200" height="200">
    <defs>
        <style type="text/css"></style>
    </defs>
    <path d="M117.333333 928c-17.066667 0-32-14.933333-32-32V377.6c0-4.266667 0-8.533333 2.133334-12.8V362.666667l128-249.6c4.266667-10.666667 17.066667-17.066667 27.733333-17.066667h531.2c12.8 0 23.466667 6.4 27.733333 17.066667L934.4 362.666667v2.133333c2.133333 4.266667 2.133333 8.533333 2.133333 12.8V896c0 17.066667-14.933333 32-32 32H117.333333z m757.333334-64V407.466667H149.333333v456.533333h725.333334z m-19.2-518.4l-100.266667-185.6h-213.333333v185.6h313.6z m-375.466667 0V160H264.533333l-96 185.6h311.466667zM386.133333 576c-17.066667 0-32-14.933333-32-32s14.933333-32 32-32h251.733334c17.066667 0 32 14.933333 32 32s-14.933333 32-32 32H386.133333z"
          fill="#778899" p-id="12765"></path>
    <path d="M637.866667 576H386.133333c-17.066667 0-32-14.933333-32-32s14.933333-32 32-32h251.733334c17.066667 0 32 14.933333 32 32s-12.8 32-32 32z"
          fill="#666666" p-id="12766"></path>
</svg>