<?xml version="1.0" standalone="no"?><!DOCTYPE svg PUBLIC "-//W3C//DTD SVG 1.1//EN"
        "http://www.w3.org/Graphics/SVG/1.1/DTD/svg11.dtd">
<svg t="1575633011962" class="icon" viewBox="0 0 1024 1024" version="1.1" xmlns="http://www.w3.org/2000/svg" p-id="2253"
     width="200" height="200">
    <defs>
        <style type="text/css"></style>
    </defs>
    <path d="M879.047111 839.755852l1.744593-1.137778c0.568889-0.417185 1.441185-1.85837 2.123852-3.034074-6.295704-78.317037-26.472296-117.722074-26.775704-118.177185l-2.578963-5.992296c-17.901037-54.158222-82.526815-105.585778-141.842963-113.170963l-15.473778 0.379259c-0.113778 0.18963-2.427259 0.758519-3.413333 1.175704-4.020148 2.578963-17.332148 10.619259-30.378667 16.763259a372.54637 372.54637 0 0 1-147.531852 36.257185 380.017778 380.017778 0 0 1-149.731555-23.779556 338.223407 338.223407 0 0 1-30.947556-13.918814c-53.475556 22.755556-101.56563 73.803852-115.901629 126.78637 0 0-19.493926 43.690667-19.076741 128.075852 0.151704 5.157926 2.275556 10.770963 5.613037 15.928889 53.854815 19.721481 161.564444 48.696889 320.32237 42.249481 235.52-9.481481 352.711111-87.533037 353.848889-88.367407zM538.81363 135.054222a202.258963 202.258963 0 0 0-202.296889 202.296889c0 12.022519 1.289481 23.779556 3.299555 35.271111a185.002667 185.002667 0 0 0 160.161185 93.070222 184.813037 184.813037 0 0 0 184.69926-184.661333 184.471704 184.471704 0 0 0-41.566815-116.622222 199.111111 199.111111 0 0 0-104.296296-29.354667z"
          fill="#B0C4DE" p-id="2254"></path>
    <path d="M501.987556 973.444741c-248.832 0-376.604444-75.207111-389.233778-83.095704-19.64563-10.770963-33.678222-33.261037-33.374815-54.006518v-0.455112c3.147852-87.950222 23.779556-137.936593 28.368593-147.986963 25.334519-78.506667 108.73363-148.138667 190.236444-159.023407l2.730667-0.151704 18.05274-0.113777a71.68 71.68 0 0 1 33.374815 8.457481c0.303407 0.113778 14.184296 8.154074 26.358519 13.274074a317.705481 317.705481 0 0 0 124.510815 24.955259c43.994074 0 86.091852-8.457481 124.928-25.22074 12.022519-5.006222 25.486222-12.894815 25.637925-12.894815l0.720593-0.417185c8.874667-4.740741 22.490074-8.154074 32.502519-8.154074l20.062814 0.113777 1.554963 0.303408c81.806222 12.022519 166.07763 84.081778 188.984889 161.185185 4.740741 10.619259 24.348444 58.861037 27.230815 145.408v0.986074h0.568889v0.568889h-0.568889v0.303407h0.568889v0.872297h-0.568889 0.568889v0.682666h-0.568889v0.151704h0.568889-0.568889c-1.137778 18.925037-15.36 41.111704-33.109333 51.162074-11.605333 7.168-139.377778 83.057778-389.49926 83.057778zM124.928 837.025185c0.151704 2.844444 4.28563 10.42963 9.746963 13.274074l1.706667 1.024c1.137778 0.758519 123.221333 76.382815 365.454222 76.382815 242.422519 0 364.316444-75.662222 365.605926-76.382815l1.441185-0.83437c4.589037-2.465185 9.595259-10.467556 10.164148-13.918815-2.996148-85.219556-23.324444-128.075852-23.514074-128.493037l-0.83437-1.896296-0.568889-1.972148c-17.180444-60.60563-86.091852-119.770074-150.869334-130.085926l-16.725333-0.151704a34.891852 34.891852 0 0 0-10.770963 2.730667c-2.844444 1.554963-16.763259 9.481481-30.075259 15.056592a358.020741 358.020741 0 0 1-142.829037 28.937482 363.254519 363.254519 0 0 1-142.411852-28.672c-14.601481-6.295704-30.226963-15.322074-30.947556-15.625482a31.288889 31.288889 0 0 0-9.86074-2.427259h-0.455111l-16.76326 0.151704c-63.450074 9.02637-132.816593 67.77363-152.007111 128.796444l-0.568889 1.706667-0.720592 1.592889c-0.113778 0.265481-21.200593 44.828444-24.348445 130.351407l0.151704 0.151704H124.776296c0.151704 0 0.151704 0.151704 0.151704 0.303407z m377.476741-310.196148a246.480593 246.480593 0 0 1-246.13926-246.139259 246.480593 246.480593 0 0 1 246.13926-246.101334 246.480593 246.480593 0 0 1 246.139259 246.13926c-0.151704 135.661037-110.440296 246.139259-246.139259 246.139259z m0-446.539852a200.628148 200.628148 0 0 0-200.400593 200.438519 200.628148 200.628148 0 0 0 200.400593 200.400592 200.628148 200.628148 0 0 0 200.438518-200.400592 200.628148 200.628148 0 0 0-200.438518-200.438519z"
          fill="#778899" p-id="2255"></path>
    <path d="M501.987556 989.184c-252.700444 0-383.506963-76.61037-397.539556-85.371259-24.082963-13.046519-41.263407-41.111704-40.846222-67.77363 3.147852-88.101926 22.755556-139.112296 29.392592-153.865481 27.344593-83.361185 116.318815-157.430519 202.979556-168.884149l3.716741-0.303407 18.925037-0.303407c13.198222-0.113778 29.809778 3.868444 41.263407 10.467555 0.265481 0.151704 13.615407 7.736889 24.76563 12.629334a302.231704 302.231704 0 0 0 118.215111 23.627851 297.490963 297.490963 0 0 0 118.632296-23.931259c11.150222-4.740741 23.893333-12.022519 24.045037-12.022518l1.024-0.568889a92.273778 92.273778 0 0 1 40.087704-10.050371l23.931259 0.568889c87.988148 12.894815 176.203852 88.101926 201.576296 171.19763 6.030222 13.767111 23.210667 58.898963 27.685926 136.116148h0.682667l0.568889 33.374815-3.147852 0.151704c-5.726815 20.062815-20.48 39.670519-38.684444 49.834666-13.463704 8.343704-143.701333 85.105778-397.274074 85.105778zM319.601778 544.237037h-0.568889l-19.911111 0.303407c-74.903704 9.860741-152.689778 75.093333-176.355556 148.138667l-0.568889 1.706667c-4.020148 8.722963-23.779556 56.585481-26.927407 141.994666-0.303407 15.018667 10.619259 32.237037 25.069037 40.087704 14.032593 8.722963 137.822815 81.08563 381.800296 81.08563 244.698074 0 367.881481-72.476444 381.079704-80.782222 13.463704-7.585185 24.651852-24.651852 25.78963-38.26726v-2.123852c-2.88237-84.840296-22.072889-131.375407-25.941334-139.946666l-0.720592-2.048c-21.352296-71.49037-100.276148-138.808889-176.203852-149.997037h-0.417185l-19.076741-0.151704a61.060741 61.060741 0 0 0-24.917333 6.33363c-0.872296 0.417185-14.791111 8.457481-27.648 13.880889a327.793778 327.793778 0 0 1-131.072 26.510222 332.98963 332.98963 0 0 1-130.654815-26.206815c-13.046519-5.613037-27.951407-14.184296-28.065185-14.184296a57.609481 57.609481 0 0 0-24.651852-6.33363z m182.423703 399.435852c-246.746074 0-372.811852-78.089481-373.949629-78.810074l-1.289482-0.720593a35.498667 35.498667 0 0 1-14.791111-16.308148l-2.958222-1.441185 0.265482-10.467556 0.455111-8.722963 0.265481-6.030222c5.006222-78.354963 24.348444-119.61837 25.220741-121.476741l0.417185-1.137777c21.086815-67.053037 95.004444-129.668741 164.750222-139.681186l2.161778-0.151703 16.763259-0.151704c5.423407 0.151704 13.615407 1.896296 18.052741 4.437333 1.706667 1.024 16.19437 9.178074 29.354667 14.904889 41.718519 17.901037 88.822519 27.382519 136.267852 27.382519 48.128 0 94.094222-9.329778 136.533333-27.685926 12.591407-5.30963 25.903407-12.894815 28.48237-14.298074 5.006222-2.578963 13.349926-4.740741 18.62163-4.740741l19.190518 0.455111c71.224889 11.301926 144.57363 74.638222 163.612445 141.387852l0.455111 1.289481c2.275556 5.006222 22.186667 49.303704 25.182815 134.788741v1.441185l-0.265482 1.441186c-1.137778 8.040296-9.02637 20.48-18.204444 25.486222l-0.834371 0.568889c-1.024 0.151704-126.520889 78.241185-373.797925 78.241185z m-328.400592-91.249778c48.848593 21.617778 158.90963 59.58163 328.362667 59.58163 235.671704 0 356.010667-73.197037 357.148444-74.069334l1.744593-0.986074a13.198222 13.198222 0 0 0 2.275555-2.88237c-3.147852-78.65837-21.769481-118.746074-21.921185-119.201185l-2.275556-5.992297c-15.625481-54.878815-78.241185-108.885333-137.102222-118.784l-15.473778-0.151703c-0.151704 0.151704-2.427259 0.758519-3.413333 1.024-4.171852 2.275556-17.825185 9.860741-30.985481 15.473778a372.053333 372.053333 0 0 1-148.85926 30.075259 378.04563 378.04563 0 0 1-148.555852-29.961482c-13.615407-5.840593-27.648-13.729185-31.781925-16.00474a18.469926 18.469926 0 0 0-3.45126-0.758519l-15.17037 0.151704c-57.761185 8.722963-120.794074 62.464-138.126222 117.797926l-2.275556 5.575111c-0.151704 0.151704-18.052741 39.518815-22.376296 113.891555l32.237037 25.220741z m328.817778-309.741037a262.181926 262.181926 0 0 1-261.916445-261.878518A262.181926 262.181926 0 0 1 502.404741 18.887111a262.181926 262.181926 0 0 1 261.916444 261.878519c-0.151704 144.384-117.646222 261.878519-261.916444 261.878518z m0-492.126815a230.665481 230.665481 0 0 0-230.4 230.362074 230.665481 230.665481 0 0 0 230.362074 230.4 230.58963 230.58963 0 0 0 230.4-230.4c-0.151704-127.051852-103.461926-230.362074-230.4-230.362074z m0 446.577778a216.594963 216.594963 0 0 1-216.329482-216.329481 216.519111 216.519111 0 0 1 216.291556-216.329482 216.519111 216.519111 0 0 1 216.329481 216.329482 216.594963 216.594963 0 0 1-216.329481 216.329481z m0-400.990815a184.813037 184.813037 0 0 0-184.69926 184.661334 184.813037 184.813037 0 0 0 184.69926 184.661333 184.813037 184.813037 0 0 0 184.661333-184.699259 184.926815 184.926815 0 0 0-184.699259-184.623408z"
          fill="#778899" p-id="2256"></path>
</svg>