<?xml version="1.0" standalone="no"?><!DOCTYPE svg PUBLIC "-//W3C//DTD SVG 1.1//EN"
        "http://www.w3.org/Graphics/SVG/1.1/DTD/svg11.dtd">
<svg t="1575633220836" class="icon" viewBox="0 0 1024 1024" version="1.1" xmlns="http://www.w3.org/2000/svg" p-id="8650"
     width="200" height="200">
    <defs>
        <style type="text/css"></style>
    </defs>
    <path d="M512 551.350857a157.842286 157.842286 0 0 1-157.549714-157.476571c0-86.820571 70.802286-157.549714 157.549714-157.549715s157.549714 70.729143 157.549714 157.549715c0 87.04-70.802286 157.476571-157.549714 157.476571z m0-242.322286a84.918857 84.918857 0 0 0 0 169.691429 84.918857 84.918857 0 0 0 0-169.691429z"
          fill="#778899" p-id="8651"></path>
    <path d="M231.570286 868.352a312.685714 312.685714 0 0 1 1.682285-33.133714c3.730286-27.794286 11.190857-54.930286 22.089143-80.896l-3.657143 8.996571a319.926857 319.926857 0 0 1 34.523429-61.659428l3.657143-5.266286c0.512-0.731429 1.024-1.243429 1.462857-1.974857 2.267429-2.925714-3.437714 4.973714-3.145143 4.242285 0.731429-2.925714 5.705143-7.241143 7.68-9.508571 10.166857-11.922286 21.065143-23.405714 32.987429-33.645714 2.779429-2.486857 5.705143-4.973714 8.777143-7.460572 1.462857-1.316571 2.925714-2.56 4.388571-3.510857 1.024-0.731429 3.730286-2.998857-1.243429 0.950857-5.412571 4.242286-0.950857 0.731429 0 0a311.588571 311.588571 0 0 1 18.651429-12.946285c15.140571-9.728 31.305143-18.285714 47.689143-25.453715l-8.996572 3.730286c25.892571-10.971429 52.662857-18.212571 80.457143-22.235429a331.922286 331.922286 0 0 1 66.267429 0c27.648 3.803429 54.710857 11.264 80.457143 22.235429L616.521143 607.085714a318.025143 318.025143 0 0 1 61.366857 34.669715l5.12 3.730285c0.731429 0.512 1.243429 1.024 2.048 1.462857 2.925714 2.340571-4.973714-3.437714-4.242286-3.145142 2.925714 0.731429 7.168 5.705143 9.435429 7.68a301.494857 301.494857 0 0 1 40.96 41.910857c1.243429 1.536 2.486857 2.998857 3.437714 4.534857 0.731429 1.024 2.998857 3.730286-0.950857-1.243429-4.242286-5.485714-0.731429-1.024 0 0a352.914286 352.914286 0 0 1 38.253714 66.633143l-3.730285-8.996571c10.971429 25.965714 18.139429 52.882286 22.089142 80.896a315.392 315.392 0 0 1 1.755429 33.206857c0 19.382857 17.115429 38.4 37.229714 37.376a38.107429 38.107429 0 0 0 37.302857-37.449143 357.668571 357.668571 0 0 0-63.853714-203.849143 363.446857 363.446857 0 0 0-171.154286-131.510857 351.963429 351.963429 0 0 0-216.210285-7.533714 353.572571 353.572571 0 0 0-174.811429 113.810285 362.788571 362.788571 0 0 0-82.944 229.083429c0 19.456 17.115429 38.473143 37.302857 37.449143a38.034286 38.034286 0 0 0 36.717715-37.449143z"
          fill="#778899" p-id="8652"></path>
    <path d="M512 1024c-282.185143 0-512-229.814857-512-512s229.814857-512 512-512 512 229.814857 512 512-229.814857 512-512 512zM512 74.166857A438.272 438.272 0 0 0 74.166857 512c0 241.371429 196.461714 437.833143 437.833143 437.833143S949.833143 753.371429 949.833143 512 753.371429 74.166857 512 74.166857z"
          fill="#778899" p-id="8653"></path>
</svg>