<?xml version="1.0" standalone="no"?><!DOCTYPE svg PUBLIC "-//W3C//DTD SVG 1.1//EN"
        "http://www.w3.org/Graphics/SVG/1.1/DTD/svg11.dtd">
<svg t="1575634769381" class="icon" viewBox="0 0 1251 1024" version="1.1" xmlns="http://www.w3.org/2000/svg"
     p-id="19673"
     width="244.3359375" height="200">
    <defs>
        <style type="text/css"></style>
    </defs>
    <path d="M187.733333 1021.155556c-88.177778 0-159.288889-71.111111-159.288889-159.288889V162.133333C28.444444 73.955556 99.555556 0 187.733333 0h876.088889C1152 0 1223.111111 71.111111 1223.111111 159.288889v702.577778c0 88.177778-71.111111 159.288889-159.288889 159.288889H187.733333zM187.733333 85.333333C147.911111 85.333333 113.777778 119.466667 113.777778 162.133333v702.577778C113.777778 904.533333 147.911111 938.666667 187.733333 938.666667h876.088889c39.822222 0 73.955556-34.133333 73.955556-73.955556V162.133333c0-39.822222-34.133333-73.955556-73.955556-73.955555H187.733333z m819.2 674.133334c-22.755556 0-42.666667-19.911111-42.666666-42.666667 0-73.955556-59.733333-133.688889-133.688889-133.688889s-133.688889 59.733333-133.688889 133.688889c0 22.755556-19.911111 42.666667-42.666667 42.666667s-42.666667-19.911111-42.666666-42.666667c0-73.955556 39.822222-145.066667 102.4-184.888889-28.444444-28.444444-42.666667-68.266667-42.666667-108.088889 0-88.177778 71.111111-159.288889 159.288889-159.288889s159.288889 71.111111 159.288889 159.288889c0 39.822222-17.066667 79.644444-42.666667 108.088889 62.577778 39.822222 102.4 108.088889 102.4 184.888889 0 22.755556-19.911111 42.666667-42.666667 42.666667z m-176.355555-409.6c-39.822222 0-73.955556 34.133333-73.955556 73.955555 0 39.822222 34.133333 73.955556 73.955556 73.955556 39.822222 0 73.955556-34.133333 73.955555-73.955556 0-39.822222-31.288889-73.955556-73.955555-73.955555z m0 0"
          fill="#778899" p-id="19674"></path>
    <path d="M506.311111 349.866667H241.777778c-25.6 0-45.511111-19.911111-45.511111-45.511111 0-25.6 19.911111-45.511111 45.511111-45.511112h261.688889c25.6 0 45.511111 19.911111 45.511111 45.511112 0 25.6-19.911111 45.511111-42.666667 45.511111z m0 0M506.311111 557.511111H241.777778c-25.6 0-45.511111-19.911111-45.511111-45.511111 0-25.6 19.911111-45.511111 45.511111-45.511111h261.688889c25.6 0 45.511111 19.911111 45.511111 45.511111 0 25.6-19.911111 45.511111-42.666667 45.511111z m0 0M506.311111 759.466667H241.777778c-25.6 0-45.511111-19.911111-45.511111-45.511111 0-25.6 19.911111-45.511111 45.511111-45.511112h261.688889c25.6 0 45.511111 19.911111 45.511111 45.511112 0 25.6-19.911111 45.511111-42.666667 45.511111z m0 0"
          fill="#779999" p-id="19675"></path>
</svg>